<?xml version="1.0" standalone="no"?><!DOCTYPE svg PUBLIC "-//W3C//DTD SVG 1.1//EN" "http://www.w3.org/Graphics/SVG/1.1/DTD/svg11.dtd"><svg t="1630659486683" class="icon" viewBox="0 0 1194 1024" version="1.1" xmlns="http://www.w3.org/2000/svg" p-id="5806" width="15.158203125" height="13" xmlns:xlink="http://www.w3.org/1999/xlink"><defs><style type="text/css"></style></defs><path d="M597.333333 1024a512 512 0 1 1 512-512 512 512 0 0 1-512 512z m0-914.2784A402.2784 402.2784 0 1 0 999.611733 512 402.2784 402.2784 0 0 0 597.333333 109.7216zM597.333333 768a256 256 0 1 1 256-256 256 256 0 0 1-256 256z m0-402.2784A146.2784 146.2784 0 1 0 743.611733 512 146.2784 146.2784 0 0 0 597.333333 365.7216z" p-id="5807" fill="#0071FF"></path></svg>